<svg version="1.1" id="Layer_1" xmlns="http://www.w3.org/2000/svg" xmlns:xlink="http://www.w3.org/1999/xlink" x="0px" y="0px"
	 width="100%" viewBox="0 0 1000 1000" enable-background="new 0 0 1000 1000" xml:space="preserve">
<path fill="#FCFCFC" opacity="1.000000" stroke="none" 
	d="
M565.000000,1001.000000 
	C522.645752,1001.000000 480.291534,1001.000000 437.500214,1000.598022 
	C435.432281,999.153259 433.874268,997.345520 432.159668,997.182251 
	C405.881439,994.679871 380.472534,988.111633 355.250092,980.780396 
	C330.392303,973.555176 306.302582,964.171509 282.831360,953.293091 
	C275.843536,950.054443 269.730286,944.886108 262.685974,941.820435 
	C246.305908,934.691833 232.084717,924.098267 217.203339,914.581848 
	C208.046799,908.726318 199.230759,902.290955 190.598007,895.677124 
	C181.825211,888.955994 172.773026,882.375671 165.068924,874.530090 
	C149.175186,858.344421 131.314713,844.054810 118.392769,824.925781 
	C111.576836,814.835754 102.927551,805.984863 95.121666,796.561584 
	C94.596382,795.927429 94.198395,795.186951 93.749504,794.490601 
	C87.491425,784.782471 81.101372,775.156189 75.011986,765.343384 
	C67.602966,753.403870 59.841736,741.622986 53.355759,729.187805 
	C47.106041,717.205566 42.047459,704.574951 36.922626,692.042358 
	C33.428570,683.497803 30.536968,674.690918 27.705326,665.895264 
	C23.712170,653.491699 19.918451,641.020813 16.251238,628.516663 
	C14.535594,622.666687 13.119851,616.710938 11.912484,610.733582 
	C9.413424,598.361328 7.110936,585.948669 4.819355,573.535767 
	C4.490735,571.755737 5.116650,569.703796 4.477877,568.106873 
	C3.960886,566.814331 2.205873,566.016968 1.000002,565.000000 
	C1.000000,522.645752 1.000000,480.291534 1.388106,437.579041 
	C2.653583,435.780945 4.056299,434.426453 4.306644,432.884857 
	C4.971657,428.789734 4.782970,424.544800 5.570135,420.482788 
	C8.201961,406.901642 11.009769,393.352112 13.961944,379.836731 
	C15.297624,373.721863 16.895082,367.640503 18.793966,361.677765 
	C21.909678,351.894012 25.111042,342.122284 28.739101,332.520355 
	C34.929337,316.137512 41.102345,299.728088 48.033161,283.653442 
	C51.547882,275.501770 56.541046,267.960083 61.148167,260.312714 
	C70.027435,245.573944 78.877014,230.807556 88.198837,216.349152 
	C93.025826,208.862350 98.851936,202.021255 104.199707,194.868317 
	C110.689789,186.187469 116.325096,176.687485 123.792427,168.953751 
	C140.843704,151.294189 156.824066,132.485245 177.049332,118.041985 
	C187.563522,110.533600 197.038269,101.578979 207.466217,93.937691 
	C217.225845,86.786118 227.485489,80.282532 237.777878,73.901520 
	C249.332367,66.738029 260.986145,59.689838 272.949036,53.245472 
	C281.076691,48.867146 289.776154,45.533981 298.282532,41.879299 
	C307.994293,37.706760 317.679230,33.441208 327.561340,29.706978 
	C333.875427,27.321035 340.531677,25.844854 347.023804,23.924667 
	C355.519409,21.411901 364.001556,18.853815 372.498016,16.343893 
	C373.448975,16.062967 374.491791,16.079781 375.429749,15.769963 
	C385.712067,12.373632 395.970520,8.910128 406.984436,8.790009 
	C408.461761,8.773897 410.411804,8.901157 411.326569,8.066893 
	C415.052307,4.669059 419.585663,5.396407 423.915283,5.062976 
	C427.068665,4.820133 430.309265,5.111614 433.365204,4.470299 
	C434.758209,4.177966 435.799286,2.208674 437.000000,1.000000 
	C479.354218,1.000000 521.708435,1.000000 564.430786,1.419647 
	C565.802917,2.634672 566.718445,3.958555 567.824524,4.143652 
	C578.882629,5.994187 590.036743,7.325742 601.033386,9.471851 
	C610.875305,11.392605 620.564758,14.108062 630.300049,16.557667 
	C637.335083,18.327831 644.436890,19.923599 651.326660,22.158859 
	C661.185913,25.357512 670.943542,28.899494 680.626282,32.604126 
	C692.759705,37.246441 704.971985,41.768227 716.770691,47.170856 
	C724.981934,50.930748 732.306580,56.603241 740.463928,60.509506 
	C757.430359,68.634178 772.715942,79.369133 788.086853,89.993568 
	C794.340027,94.315781 800.302917,99.063103 806.336609,103.696770 
	C816.689880,111.647743 827.850769,118.784843 837.130371,127.843498 
	C853.124023,143.456223 870.489258,157.794952 883.273132,176.603348 
	C891.523010,188.741058 901.666199,199.586929 909.994873,211.677292 
	C920.118958,226.374054 929.159058,241.814301 938.794617,256.851898 
	C947.901917,271.065186 955.527527,285.956909 961.260620,301.881470 
	C963.809753,308.961945 968.225647,315.171356 969.569641,322.974152 
	C970.669128,329.357880 974.356934,335.256042 976.434509,341.522888 
	C978.315308,347.196167 979.567017,353.077759 981.110229,358.863708 
	C981.192932,359.173584 981.332153,359.555969 981.571716,359.723328 
	C985.597107,362.535126 984.266418,366.876373 984.725952,370.698975 
	C984.922058,372.330261 984.443176,374.866943 985.310486,375.452484 
	C989.345764,378.176849 988.095337,382.233154 988.580750,385.853973 
	C988.823242,387.662659 988.251282,390.273743 989.254700,391.168793 
	C993.934204,395.342865 991.906067,400.698608 992.488037,405.595581 
	C992.755249,407.844055 992.546692,411.261871 993.840942,412.058624 
	C997.194458,414.123077 996.802673,417.014893 996.942993,419.884247 
	C997.146423,424.042389 997.098877,428.212738 997.161560,432.377838 
	C997.200256,434.946594 997.756042,437.090790 1001.000000,437.000000 
	C1001.000000,479.354218 1001.000000,521.708435 1000.674561,564.190674 
	C999.340332,565.752319 997.669128,567.093018 997.452332,568.637756 
	C996.899292,572.577759 997.071838,576.614014 996.803284,580.601624 
	C996.638306,583.051453 997.084778,586.660767 995.709229,587.698792 
	C991.777405,590.665527 992.894104,594.340698 992.655762,598.047852 
	C992.428711,601.578064 991.751465,605.099304 991.012390,608.569092 
	C990.587524,610.564148 988.924805,612.502380 989.062195,614.374939 
	C989.684265,622.854980 982.593933,629.854309 984.652527,638.518311 
	C980.835999,641.556946 980.809509,645.854858 980.716614,650.161743 
	C980.704041,650.745239 980.157654,651.303772 979.919800,651.898438 
	C978.938843,654.350098 977.880432,656.778015 977.058716,659.282959 
	C976.656311,660.509460 977.184814,662.626465 976.481995,663.077209 
	C970.547363,666.882996 972.454102,674.043823 970.035767,679.316833 
	C967.129883,685.652954 964.783875,692.543518 961.578125,698.964722 
	C959.969482,702.186829 958.484253,705.484253 957.170898,708.836792 
	C955.262634,713.708191 954.058594,718.919373 951.665039,723.523315 
	C946.841125,732.801819 941.422363,741.771362 936.239380,750.862793 
	C934.290283,754.281677 932.532776,757.836121 930.303406,761.063049 
	C926.228699,766.960876 921.865784,772.659363 917.632874,778.448181 
	C917.440674,778.711060 917.370361,779.059631 917.200623,779.342773 
	C913.797791,785.019409 910.636108,790.861267 906.908752,796.316589 
	C903.436096,801.399048 898.870422,805.464294 895.589294,811.007996 
	C890.839294,819.033264 884.036804,826.223572 877.662292,832.972229 
	C861.271301,850.325195 845.890564,868.858704 825.751160,882.517456 
	C815.164185,889.697754 805.887573,898.810059 796.015503,907.045471 
	C795.636108,907.362000 795.230591,907.651733 794.815125,907.919617 
	C784.666565,914.465881 774.611267,921.163269 764.338074,927.507812 
	C753.064880,934.470154 741.992554,941.939026 730.106079,947.683594 
	C713.601135,955.660278 696.670349,962.921387 679.459839,969.227905 
	C660.674011,976.111694 641.590271,982.464661 622.209839,987.360352 
	C604.565796,991.817444 586.353455,994.030273 568.382141,997.178467 
	C566.113159,997.575928 564.025818,997.858887 565.000000,1001.000000 
M177.823380,853.679871 
	C222.707077,894.631653 273.457275,926.111755 330.306549,947.576904 
	C416.597198,980.158691 505.079254,987.826904 595.524780,969.464905 
	C672.086670,953.921509 740.998901,921.752808 801.761353,872.445435 
	C866.851257,819.626404 915.168335,754.415894 945.629639,676.286438 
	C978.135803,592.912231 987.277893,506.974121 971.836670,418.700317 
	C955.890076,327.537567 917.088196,247.155151 854.551880,179.040421 
	C771.508301,88.589134 668.324707,36.824947 545.996033,24.861448 
	C442.959839,14.784712 346.530273,36.795788 257.303986,89.150322 
	C192.304031,127.289772 139.641663,178.549194 98.811966,241.947083 
	C71.091133,284.990326 50.959560,331.344971 38.036308,380.834778 
	C22.226700,441.377930 18.787558,502.676239 26.905113,564.706665 
	C33.927605,618.369080 50.022324,669.194946 74.369545,717.413025 
	C100.380432,768.925964 134.936996,814.042175 177.823380,853.679871 
z"/>
<path fill="#000001" opacity="1.000000" stroke="none" 
	d="
M565.468628,1001.000000 
	C564.025818,997.858887 566.113159,997.575928 568.382141,997.178467 
	C586.353455,994.030273 604.565796,991.817444 622.209839,987.360352 
	C641.590271,982.464661 660.674011,976.111694 679.459839,969.227905 
	C696.670349,962.921387 713.601135,955.660278 730.106079,947.683594 
	C741.992554,941.939026 753.064880,934.470154 764.338074,927.507812 
	C774.611267,921.163269 784.666565,914.465881 794.815125,907.919617 
	C795.230591,907.651733 795.636108,907.362000 796.015503,907.045471 
	C805.887573,898.810059 815.164185,889.697754 825.751160,882.517456 
	C845.890564,868.858704 861.271301,850.325195 877.662292,832.972229 
	C884.036804,826.223572 890.839294,819.033264 895.589294,811.007996 
	C898.870422,805.464294 903.436096,801.399048 906.908752,796.316589 
	C910.636108,790.861267 913.797791,785.019409 917.200623,779.342773 
	C917.370361,779.059631 917.440674,778.711060 917.632874,778.448181 
	C921.865784,772.659363 926.228699,766.960876 930.303406,761.063049 
	C932.532776,757.836121 934.290283,754.281677 936.239380,750.862793 
	C941.422363,741.771362 946.841125,732.801819 951.665039,723.523315 
	C954.058594,718.919373 955.262634,713.708191 957.170898,708.836792 
	C958.484253,705.484253 959.969482,702.186829 961.578125,698.964722 
	C964.783875,692.543518 967.129883,685.652954 970.035767,679.316833 
	C972.454102,674.043823 970.547363,666.882996 976.481995,663.077209 
	C977.184814,662.626465 976.656311,660.509460 977.058716,659.282959 
	C977.880432,656.778015 978.938843,654.350098 979.919800,651.898438 
	C980.157654,651.303772 980.704041,650.745239 980.716614,650.161743 
	C980.809509,645.854858 980.835999,641.556946 984.652527,638.518311 
	C982.593933,629.854309 989.684265,622.854980 989.062195,614.374939 
	C988.924805,612.502380 990.587524,610.564148 991.012390,608.569092 
	C991.751465,605.099304 992.428711,601.578064 992.655762,598.047852 
	C992.894104,594.340698 991.777405,590.665527 995.709229,587.698792 
	C997.084778,586.660767 996.638306,583.051453 996.803284,580.601624 
	C997.071838,576.614014 996.899292,572.577759 997.452332,568.637756 
	C997.669128,567.093018 999.340332,565.752319 1000.674561,564.659302 
	C1001.000000,710.260376 1001.000000,855.520813 1001.000000,1001.000000 
	C855.979187,1001.000000 710.958252,1001.000000 565.468628,1001.000000 
z"/>
<path fill="#010001" opacity="1.000000" stroke="none" 
	d="
M1.000002,565.468628 
	C2.205873,566.016968 3.960886,566.814331 4.477877,568.106873 
	C5.116650,569.703796 4.490735,571.755737 4.819355,573.535767 
	C7.110936,585.948669 9.413424,598.361328 11.912484,610.733582 
	C13.119851,616.710938 14.535594,622.666687 16.251238,628.516663 
	C19.918451,641.020813 23.712170,653.491699 27.705326,665.895264 
	C30.536968,674.690918 33.428570,683.497803 36.922626,692.042358 
	C42.047459,704.574951 47.106041,717.205566 53.355759,729.187805 
	C59.841736,741.622986 67.602966,753.403870 75.011986,765.343384 
	C81.101372,775.156189 87.491425,784.782471 93.749504,794.490601 
	C94.198395,795.186951 94.596382,795.927429 95.121666,796.561584 
	C102.927551,805.984863 111.576836,814.835754 118.392769,824.925781 
	C131.314713,844.054810 149.175186,858.344421 165.068924,874.530090 
	C172.773026,882.375671 181.825211,888.955994 190.598007,895.677124 
	C199.230759,902.290955 208.046799,908.726318 217.203339,914.581848 
	C232.084717,924.098267 246.305908,934.691833 262.685974,941.820435 
	C269.730286,944.886108 275.843536,950.054443 282.831360,953.293091 
	C306.302582,964.171509 330.392303,973.555176 355.250092,980.780396 
	C380.472534,988.111633 405.881439,994.679871 432.159668,997.182251 
	C433.874268,997.345520 435.432281,999.153259 437.031555,1000.598022 
	C291.739594,1001.000000 146.479172,1001.000000 1.000000,1001.000000 
	C1.000000,855.979187 1.000000,710.958252 1.000002,565.468628 
z"/>
<path fill="#000001" opacity="1.000000" stroke="none" 
	d="
M1001.000000,436.531342 
	C997.756042,437.090790 997.200256,434.946594 997.161560,432.377838 
	C997.098877,428.212738 997.146423,424.042389 996.942993,419.884247 
	C996.802673,417.014893 997.194458,414.123077 993.840942,412.058624 
	C992.546692,411.261871 992.755249,407.844055 992.488037,405.595581 
	C991.906067,400.698608 993.934204,395.342865 989.254700,391.168793 
	C988.251282,390.273743 988.823242,387.662659 988.580750,385.853973 
	C988.095337,382.233154 989.345764,378.176849 985.310486,375.452484 
	C984.443176,374.866943 984.922058,372.330261 984.725952,370.698975 
	C984.266418,366.876373 985.597107,362.535126 981.571716,359.723328 
	C981.332153,359.555969 981.192932,359.173584 981.110229,358.863708 
	C979.567017,353.077759 978.315308,347.196167 976.434509,341.522888 
	C974.356934,335.256042 970.669128,329.357880 969.569641,322.974152 
	C968.225647,315.171356 963.809753,308.961945 961.260620,301.881470 
	C955.527527,285.956909 947.901917,271.065186 938.794617,256.851898 
	C929.159058,241.814301 920.118958,226.374054 909.994873,211.677292 
	C901.666199,199.586929 891.523010,188.741058 883.273132,176.603348 
	C870.489258,157.794952 853.124023,143.456223 837.130371,127.843498 
	C827.850769,118.784843 816.689880,111.647743 806.336609,103.696770 
	C800.302917,99.063103 794.340027,94.315781 788.086853,89.993568 
	C772.715942,79.369133 757.430359,68.634178 740.463928,60.509506 
	C732.306580,56.603241 724.981934,50.930748 716.770691,47.170856 
	C704.971985,41.768227 692.759705,37.246441 680.626282,32.604126 
	C670.943542,28.899494 661.185913,25.357512 651.326660,22.158859 
	C644.436890,19.923599 637.335083,18.327831 630.300049,16.557667 
	C620.564758,14.108062 610.875305,11.392605 601.033386,9.471851 
	C590.036743,7.325742 578.882629,5.994187 567.824524,4.143652 
	C566.718445,3.958555 565.802917,2.634672 564.899475,1.419647 
	C710.260376,1.000000 855.520813,1.000000 1001.000000,1.000000 
	C1001.000000,146.020828 1001.000000,291.041748 1001.000000,436.531342 
z"/>
<path fill="#010101" opacity="1.000000" stroke="none" 
	d="
M436.531342,1.000000 
	C435.799286,2.208674 434.758209,4.177966 433.365204,4.470299 
	C430.309265,5.111614 427.068665,4.820133 423.915283,5.062976 
	C419.585663,5.396407 415.052307,4.669059 411.326569,8.066893 
	C410.411804,8.901157 408.461761,8.773897 406.984436,8.790009 
	C395.970520,8.910128 385.712067,12.373632 375.429749,15.769963 
	C374.491791,16.079781 373.448975,16.062967 372.498016,16.343893 
	C364.001556,18.853815 355.519409,21.411901 347.023804,23.924667 
	C340.531677,25.844854 333.875427,27.321035 327.561340,29.706978 
	C317.679230,33.441208 307.994293,37.706760 298.282532,41.879299 
	C289.776154,45.533981 281.076691,48.867146 272.949036,53.245472 
	C260.986145,59.689838 249.332367,66.738029 237.777878,73.901520 
	C227.485489,80.282532 217.225845,86.786118 207.466217,93.937691 
	C197.038269,101.578979 187.563522,110.533600 177.049332,118.041985 
	C156.824066,132.485245 140.843704,151.294189 123.792427,168.953751 
	C116.325096,176.687485 110.689789,186.187469 104.199707,194.868317 
	C98.851936,202.021255 93.025826,208.862350 88.198837,216.349152 
	C78.877014,230.807556 70.027435,245.573944 61.148167,260.312714 
	C56.541046,267.960083 51.547882,275.501770 48.033161,283.653442 
	C41.102345,299.728088 34.929337,316.137512 28.739101,332.520355 
	C25.111042,342.122284 21.909678,351.894012 18.793966,361.677765 
	C16.895082,367.640503 15.297624,373.721863 13.961944,379.836731 
	C11.009769,393.352112 8.201961,406.901642 5.570135,420.482788 
	C4.782970,424.544800 4.971657,428.789734 4.306644,432.884857 
	C4.056299,434.426453 2.653583,435.780945 1.388106,437.110352 
	C1.000000,291.739594 1.000000,146.479172 1.000000,1.000000 
	C146.020828,1.000000 291.041748,1.000000 436.531342,1.000000 
z"/>
<path fill="#010101" opacity="1.000000" stroke="none" 
	d="
M177.571442,853.431335 
	C134.936996,814.042175 100.380432,768.925964 74.369545,717.413025 
	C50.022324,669.194946 33.927605,618.369080 26.905113,564.706665 
	C18.787558,502.676239 22.226700,441.377930 38.036308,380.834778 
	C50.959560,331.344971 71.091133,284.990326 98.811966,241.947083 
	C139.641663,178.549194 192.304031,127.289772 257.303986,89.150322 
	C346.530273,36.795788 442.959839,14.784712 545.996033,24.861448 
	C668.324707,36.824947 771.508301,88.589134 854.551880,179.040421 
	C917.088196,247.155151 955.890076,327.537567 971.836670,418.700317 
	C987.277893,506.974121 978.135803,592.912231 945.629639,676.286438 
	C915.168335,754.415894 866.851257,819.626404 801.761353,872.445435 
	C740.998901,921.752808 672.086670,953.921509 595.524780,969.464905 
	C505.079254,987.826904 416.597198,980.158691 330.306549,947.576904 
	C273.457275,926.111755 222.707077,894.631653 177.571442,853.431335 
M594.213318,482.005280 
	C593.190491,483.313477 591.893738,484.490845 591.194824,485.953796 
	C588.847168,490.867859 586.840332,495.945709 584.465149,500.845520 
	C581.239380,507.500244 575.129700,513.432861 579.650269,521.856323 
	C579.774109,522.087158 579.685791,522.569153 579.515198,522.800476 
	C576.174316,527.332214 572.806580,531.844116 569.019836,536.930237 
	C566.237976,531.814697 564.121704,527.923035 561.981567,523.201477 
	C562.629089,521.372986 563.276672,519.544495 564.053955,517.582520 
	C564.053955,517.582520 564.063660,517.222656 564.021484,516.528381 
	C564.371155,515.684204 564.720764,514.840027 565.586670,513.615356 
	C565.741333,512.790100 565.895996,511.964905 566.054382,510.405792 
	C566.748535,508.601440 567.442749,506.797119 568.597839,504.571259 
	C568.641235,504.167969 568.684631,503.764709 568.733521,502.640472 
	C578.029541,474.553528 592.116272,448.746124 607.070557,423.431580 
	C621.085754,399.706726 631.547363,374.795166 636.554382,347.582703 
	C643.176147,311.594818 639.542786,276.731323 624.000000,243.730621 
	C616.669922,228.167114 606.730469,213.801987 597.605652,199.122406 
	C587.321411,182.577744 576.807251,166.174591 570.376648,147.628891 
	C564.301819,130.108932 561.166382,112.464699 569.436035,94.645699 
	C569.769287,93.927681 569.747681,93.044991 569.891418,92.239029 
	C569.484009,91.949905 569.076660,91.660782 568.669312,91.371658 
	C568.188965,92.245720 567.759521,93.152580 567.220764,93.989006 
	C557.807434,108.603729 551.714539,124.217445 553.582336,141.973846 
	C555.815369,163.202682 563.618958,182.928574 570.597168,202.850418 
	C576.914612,220.885925 579.627014,239.397705 577.342346,258.369141 
	C573.562744,289.753937 559.932434,317.416901 543.800354,344.010986 
	C527.737610,370.490570 507.006439,393.300018 486.463867,416.231567 
	C468.928772,435.805939 450.461823,454.539154 435.267426,476.156097 
	C418.806763,499.574615 406.771790,524.925232 400.308624,552.795471 
	C398.286835,561.513672 397.440460,570.501953 395.938843,579.346680 
	C395.743011,580.500061 394.844513,581.534241 394.271515,582.623657 
	C393.007050,581.947815 391.312073,581.569153 390.588135,580.520264 
	C389.702179,579.236572 389.223999,577.379089 389.271942,575.790955 
	C389.572052,565.859802 388.325806,555.464905 390.849640,546.101807 
	C396.726166,524.300720 404.120270,502.883698 411.507874,481.521423 
	C420.753815,454.785522 431.022125,428.115967 434.446228,400.062286 
	C437.376465,376.055359 436.135498,351.538757 436.683411,327.246307 
	C436.693024,326.819214 435.998932,326.376221 434.934326,325.108276 
	C434.450989,328.075195 433.995331,330.106598 433.803772,332.162598 
	C430.897156,363.362122 422.152100,392.694305 407.172577,420.343079 
	C382.564789,465.763550 349.931458,504.802521 312.899811,540.354126 
	C292.852936,559.599731 271.858978,577.783936 255.386398,600.536865 
	C231.442169,633.610046 215.281296,669.756531 209.188461,710.247070 
	C204.970093,738.280579 209.296707,765.368164 218.727219,791.754089 
	C220.453949,796.585266 223.455460,801.358093 227.022430,805.039978 
	C232.199097,810.383362 239.364548,810.156860 245.721634,807.580322 
	C251.505600,805.235962 252.787628,799.579895 252.285278,793.687378 
	C251.945923,789.706848 251.662079,785.704712 251.002380,781.771057 
	C246.802567,756.728149 251.190491,733.552368 265.068451,712.070923 
	C277.826019,692.323669 303.668823,681.227173 326.670837,685.626709 
	C341.260925,688.417236 354.702118,693.875732 367.574402,700.997253 
	C402.678406,720.418640 438.473816,738.341431 476.839233,750.519409 
	C497.736694,757.152710 518.923218,761.136841 541.075989,757.299255 
	C560.261108,753.975830 577.265015,746.652344 589.981567,731.658203 
	C599.545166,720.381714 608.361694,708.441406 617.062805,696.470947 
	C629.219971,679.745667 641.351440,663.267212 658.708008,651.142334 
	C683.422424,633.877319 714.518616,637.753174 733.106812,661.507812 
	C747.042419,679.316833 753.914795,700.010254 756.848999,722.127991 
	C758.139954,731.858765 759.114868,741.661194 759.586182,751.462219 
	C760.020874,760.503174 760.425659,769.690735 759.305237,778.620667 
	C758.177795,787.607178 755.139709,796.352234 752.966309,805.209839 
	C751.424866,811.492126 752.352295,817.438110 757.401978,821.622864 
	C762.347717,825.721680 768.086548,826.935303 774.652039,824.474670 
	C781.079834,822.065674 784.124329,817.255005 785.719238,811.312561 
	C790.484131,793.559204 793.996704,775.471069 792.957703,757.069885 
	C791.535034,731.874573 787.033508,707.034302 778.025757,683.412292 
	C771.045959,665.108337 762.508301,647.392761 754.503113,629.487183 
	C747.808044,614.512146 743.429688,598.995728 745.194336,582.516724 
	C748.232422,554.145813 758.302429,527.988586 771.635925,502.971588 
	C772.962463,500.482635 774.094360,497.889984 775.316650,495.345490 
	C773.935608,495.193207 773.365417,495.491577 772.854675,495.870270 
	C759.253723,505.956787 745.782471,516.223694 732.028870,526.097290 
	C717.860229,536.268738 702.333679,544.643066 690.631836,558.019897 
	C688.928101,559.967468 686.940430,561.666687 685.084106,563.480774 
	C684.587402,563.079041 684.090637,562.677307 683.593933,562.275574 
	C687.498840,554.910706 690.557434,546.918396 695.465759,540.297302 
	C710.841125,519.556641 719.326599,496.234741 723.100525,471.023468 
	C726.181885,450.438538 725.129578,429.919403 722.089600,409.326630 
	C717.082581,375.409454 705.589294,343.966278 688.020386,314.650299 
	C687.291565,313.434296 685.867798,312.634796 683.821838,310.786804 
	C690.202881,336.167175 695.799316,359.935272 696.529419,384.545044 
	C697.063538,402.551514 694.994080,420.076355 687.255676,436.619171 
	C675.990723,460.700897 655.309753,475.215363 633.925293,488.447845 
	C632.883972,487.972290 631.842651,487.496704 630.112610,486.706604 
	C630.580383,488.921600 630.811890,490.018036 630.701904,491.705139 
	C627.889587,493.516174 625.077271,495.327209 622.161377,496.258240 
	C621.976990,493.265839 620.990417,492.318176 618.129089,494.243652 
	C613.899292,497.090057 609.481140,499.656616 605.143188,502.342346 
	C604.658020,501.730164 604.172852,501.118011 603.687683,500.505859 
	C609.296265,495.221069 614.904785,489.936310 621.508362,483.713928 
	C614.376892,482.210693 609.993408,490.201294 603.687622,484.776001 
	C605.124268,483.278839 606.460083,481.985657 607.683350,480.593567 
	C611.440369,476.318054 615.154236,472.004608 619.241455,467.151184 
	C620.741638,466.209534 622.241821,465.267883 624.025208,464.973511 
	C628.510498,465.127441 630.932861,462.768158 632.148499,457.996460 
	C636.371094,453.983002 640.726257,450.098938 644.791443,445.931854 
	C656.991272,433.426147 663.815002,418.288147 664.744324,400.949341 
	C665.482605,387.174469 664.965088,373.332001 664.993469,359.519531 
	C665.007690,352.628601 664.995972,345.737640 664.995972,338.846680 
	C663.459412,339.094604 663.064209,339.383850 662.960083,339.754791 
	C662.286499,342.154419 661.554565,344.547394 661.063904,346.987244 
	C654.423523,380.008423 641.542480,410.318207 622.546326,438.186127 
	C612.831665,452.437775 604.129211,467.379395 594.213318,482.005280 
M529.436890,181.031937 
	C521.080750,149.158356 513.229187,117.180382 510.491364,83.983604 
	C508.829651,84.594177 508.034363,84.655449 507.649109,85.084694 
	C507.134491,85.658195 506.857544,86.491982 506.617065,87.257500 
	C502.341736,100.868492 496.924225,114.247986 494.077759,128.153275 
	C488.642029,154.707535 491.584900,181.610886 493.640991,208.331818 
	C495.495453,232.432037 496.942291,256.370605 494.120514,280.596680 
	C489.982605,316.122803 480.966370,350.097260 466.107178,382.573212 
	C464.637939,385.784393 463.145752,388.985077 461.664215,392.190643 
	C462.100769,392.461731 462.537354,392.732819 462.973938,393.003906 
	C466.628357,388.175812 470.305878,383.364990 473.933380,378.516754 
	C494.144623,351.504211 511.723969,323.020386 522.811096,290.916656 
	C535.150452,255.186859 538.889709,218.915573 529.436890,181.031937 
z"/>
<path fill="#FEFEFE" opacity="1.000000" stroke="none" 
	d="
M565.070312,513.995850 
	C564.720764,514.840027 564.371155,515.684204 563.903564,516.908081 
	C563.785706,517.287842 563.691711,517.555054 563.691711,517.555054 
	C563.691711,517.555054 563.924255,517.716003 563.924255,517.716003 
	C563.276672,519.544495 562.629089,521.372986 561.771484,523.909424 
	C557.057251,540.356140 554.994995,556.464172 554.140625,572.983643 
	C556.223389,571.744080 557.609680,570.254639 558.496033,568.510986 
	C567.697754,550.408508 579.028687,533.790527 594.061890,520.078247 
	C603.000732,511.924896 612.833923,504.751984 622.264954,497.138245 
	C625.077271,495.327209 627.889587,493.516174 631.179871,491.366211 
	C632.455505,490.404663 633.253174,489.782074 634.050842,489.159485 
	C655.309753,475.215363 675.990723,460.700897 687.255676,436.619171 
	C694.994080,420.076355 697.063538,402.551514 696.529419,384.545044 
	C695.799316,359.935272 690.202881,336.167175 683.821838,310.786804 
	C685.867798,312.634796 687.291565,313.434296 688.020386,314.650299 
	C705.589294,343.966278 717.082581,375.409454 722.089600,409.326630 
	C725.129578,429.919403 726.181885,450.438538 723.100525,471.023468 
	C719.326599,496.234741 710.841125,519.556641 695.465759,540.297302 
	C690.557434,546.918396 687.498840,554.910706 683.593933,562.275574 
	C684.090637,562.677307 684.587402,563.079041 685.084106,563.480774 
	C686.940430,561.666687 688.928101,559.967468 690.631836,558.019897 
	C702.333679,544.643066 717.860229,536.268738 732.028870,526.097290 
	C745.782471,516.223694 759.253723,505.956787 772.854675,495.870270 
	C773.365417,495.491577 773.935608,495.193207 775.316650,495.345490 
	C774.094360,497.889984 772.962463,500.482635 771.635925,502.971588 
	C758.302429,527.988586 748.232422,554.145813 745.194336,582.516724 
	C743.429688,598.995728 747.808044,614.512146 754.503113,629.487183 
	C762.508301,647.392761 771.045959,665.108337 778.025757,683.412292 
	C787.033508,707.034302 791.535034,731.874573 792.957703,757.069885 
	C793.996704,775.471069 790.484131,793.559204 785.719238,811.312561 
	C784.124329,817.255005 781.079834,822.065674 774.652039,824.474670 
	C768.086548,826.935303 762.347717,825.721680 757.401978,821.622864 
	C752.352295,817.438110 751.424866,811.492126 752.966309,805.209839 
	C755.139709,796.352234 758.177795,787.607178 759.305237,778.620667 
	C760.425659,769.690735 760.020874,760.503174 759.586182,751.462219 
	C759.114868,741.661194 758.139954,731.858765 756.848999,722.127991 
	C753.914795,700.010254 747.042419,679.316833 733.106812,661.507812 
	C714.518616,637.753174 683.422424,633.877319 658.708008,651.142334 
	C641.351440,663.267212 629.219971,679.745667 617.062805,696.470947 
	C608.361694,708.441406 599.545166,720.381714 589.981567,731.658203 
	C577.265015,746.652344 560.261108,753.975830 541.075989,757.299255 
	C518.923218,761.136841 497.736694,757.152710 476.839233,750.519409 
	C438.473816,738.341431 402.678406,720.418640 367.574402,700.997253 
	C354.702118,693.875732 341.260925,688.417236 326.670837,685.626709 
	C303.668823,681.227173 277.826019,692.323669 265.068451,712.070923 
	C251.190491,733.552368 246.802567,756.728149 251.002380,781.771057 
	C251.662079,785.704712 251.945923,789.706848 252.285278,793.687378 
	C252.787628,799.579895 251.505600,805.235962 245.721634,807.580322 
	C239.364548,810.156860 232.199097,810.383362 227.022430,805.039978 
	C223.455460,801.358093 220.453949,796.585266 218.727219,791.754089 
	C209.296707,765.368164 204.970093,738.280579 209.188461,710.247070 
	C215.281296,669.756531 231.442169,633.610046 255.386398,600.536865 
	C271.858978,577.783936 292.852936,559.599731 312.899811,540.354126 
	C349.931458,504.802521 382.564789,465.763550 407.172577,420.343079 
	C422.152100,392.694305 430.897156,363.362122 433.803772,332.162598 
	C433.995331,330.106598 434.450989,328.075195 434.934326,325.108276 
	C435.998932,326.376221 436.693024,326.819214 436.683411,327.246307 
	C436.135498,351.538757 437.376465,376.055359 434.446228,400.062286 
	C431.022125,428.115967 420.753815,454.785522 411.507874,481.521423 
	C404.120270,502.883698 396.726166,524.300720 390.849640,546.101807 
	C388.325806,555.464905 389.572052,565.859802 389.271942,575.790955 
	C389.223999,577.379089 389.702179,579.236572 390.588135,580.520264 
	C391.312073,581.569153 393.007050,581.947815 394.271484,582.623657 
	C394.844513,581.534241 395.743011,580.500061 395.938843,579.346680 
	C397.440460,570.501953 398.286835,561.513672 400.308624,552.795471 
	C406.771790,524.925232 418.806763,499.574615 435.267426,476.156097 
	C450.461823,454.539154 468.928772,435.805939 486.463867,416.231567 
	C507.006439,393.300018 527.737610,370.490570 543.800354,344.010986 
	C559.932434,317.416901 573.562744,289.753937 577.342346,258.369141 
	C579.627014,239.397705 576.914612,220.885925 570.597168,202.850418 
	C563.618958,182.928574 555.815369,163.202682 553.582336,141.973846 
	C551.714539,124.217445 557.807434,108.603729 567.220764,93.989006 
	C567.759521,93.152580 568.188965,92.245720 568.669312,91.371658 
	C569.076660,91.660782 569.484009,91.949905 569.891418,92.239029 
	C569.747681,93.044991 569.769287,93.927681 569.436035,94.645699 
	C561.166382,112.464699 564.301819,130.108932 570.376648,147.628891 
	C576.807251,166.174591 587.321411,182.577744 597.605652,199.122406 
	C606.730469,213.801987 616.669922,228.167114 624.000000,243.730621 
	C639.542786,276.731323 643.176147,311.594818 636.554382,347.582703 
	C631.547363,374.795166 621.085754,399.706726 607.070557,423.431580 
	C592.116272,448.746124 578.029541,474.553528 568.496643,503.208893 
	C568.218811,504.182465 568.177856,504.587616 568.136963,504.992767 
	C567.442749,506.797119 566.748535,508.601440 565.822205,510.990112 
	C565.416809,512.381592 565.243591,513.188721 565.070312,513.995850 
z"/>
<path fill="#FCFCFC" opacity="1.000000" stroke="none" 
	d="
M529.547485,181.431473 
	C538.889709,218.915573 535.150452,255.186859 522.811096,290.916656 
	C511.723969,323.020386 494.144623,351.504211 473.933380,378.516754 
	C470.305878,383.364990 466.628357,388.175812 462.973938,393.003906 
	C462.537354,392.732819 462.100769,392.461731 461.664215,392.190643 
	C463.145752,388.985077 464.637939,385.784393 466.107178,382.573212 
	C480.966370,350.097260 489.982605,316.122803 494.120514,280.596680 
	C496.942291,256.370605 495.495453,232.432037 493.640991,208.331818 
	C491.584900,181.610886 488.642029,154.707535 494.077759,128.153275 
	C496.924225,114.247986 502.341736,100.868492 506.617065,87.257500 
	C506.857544,86.491982 507.134491,85.658195 507.649109,85.084694 
	C508.034363,84.655449 508.829651,84.594177 510.491364,83.983604 
	C513.229187,117.180382 521.080750,149.158356 529.547485,181.431473 
z"/>
<path fill="#F9FAFA" opacity="1.000000" stroke="none" 
	d="
M623.741943,464.326233 
	C622.241821,465.267883 620.741638,466.209534 618.717651,467.508484 
	C616.513855,468.901733 614.839478,469.946869 613.152954,470.971985 
	C607.093933,474.654724 601.030823,478.330658 594.969238,482.009155 
	C604.129211,467.379395 612.831665,452.437775 622.546326,438.186127 
	C641.542480,410.318207 654.423523,380.008423 661.063904,346.987244 
	C661.554565,344.547394 662.286499,342.154419 662.960083,339.754791 
	C663.064209,339.383850 663.459412,339.094604 664.995972,338.846680 
	C664.995972,345.737640 665.007690,352.628601 664.993469,359.519531 
	C664.965088,373.332001 665.482605,387.174469 664.744324,400.949341 
	C663.815002,418.288147 656.991272,433.426147 644.791443,445.931854 
	C640.726257,450.098938 636.371094,453.983002 631.670898,458.410950 
	C628.709534,460.659027 626.225769,462.492615 623.741943,464.326233 
z"/>
<path fill="#080708" opacity="1.000000" stroke="none" 
	d="
M594.591309,482.007233 
	C601.030823,478.330658 607.093933,474.654724 613.152954,470.971985 
	C614.839478,469.946869 616.513855,468.901733 618.539368,467.785858 
	C615.154236,472.004608 611.440369,476.318054 607.683350,480.593567 
	C606.460083,481.985657 605.124268,483.278839 603.687622,484.776001 
	C609.993408,490.201294 614.376892,482.210693 621.508362,483.713928 
	C614.904785,489.936310 609.296265,495.221069 603.687683,500.505859 
	C604.172852,501.118011 604.658020,501.730164 605.143188,502.342346 
	C609.481140,499.656616 613.899292,497.090057 618.129089,494.243652 
	C620.990417,492.318176 621.976990,493.265839 622.213135,496.698242 
	C612.833923,504.751984 603.000732,511.924896 594.061890,520.078247 
	C579.028687,533.790527 567.697754,550.408508 558.496033,568.510986 
	C557.609680,570.254639 556.223389,571.744080 554.140625,572.983643 
	C554.994995,556.464172 557.057251,540.356140 561.783386,524.324402 
	C564.121704,527.923035 566.237976,531.814697 569.019836,536.930237 
	C572.806580,531.844116 576.174316,527.332214 579.515198,522.800476 
	C579.685791,522.569153 579.774109,522.087158 579.650269,521.856323 
	C575.129700,513.432861 581.239380,507.500244 584.465149,500.845520 
	C586.840332,495.945709 588.847168,490.867859 591.194824,485.953796 
	C591.893738,484.490845 593.190491,483.313477 594.591309,482.007233 
z"/>
<path fill="#080708" opacity="1.000000" stroke="none" 
	d="
M623.883545,464.649872 
	C626.225769,462.492615 628.709534,460.659027 631.515686,458.692963 
	C630.932861,462.768158 628.510498,465.127441 623.883545,464.649872 
z"/>
<path fill="#080708" opacity="1.000000" stroke="none" 
	d="
M633.988037,488.803650 
	C633.253174,489.782074 632.455505,490.404663 631.350647,491.070862 
	C630.811890,490.018036 630.580383,488.921600 630.112610,486.706604 
	C631.842651,487.496704 632.883972,487.972290 633.988037,488.803650 
z"/>
<path fill="#0F0D10" opacity="1.000000" stroke="none" 
	d="
M565.328491,513.805603 
	C565.243591,513.188721 565.416809,512.381592 565.820312,511.357056 
	C565.895996,511.964905 565.741333,512.790100 565.328491,513.805603 
z"/>
<path fill="#0F0D10" opacity="1.000000" stroke="none" 
	d="
M568.367432,504.782013 
	C568.177856,504.587616 568.218811,504.182465 568.493896,503.569366 
	C568.684631,503.764709 568.641235,504.167969 568.367432,504.782013 
z"/>
<path fill="#0F0D10" opacity="1.000000" stroke="none" 
	d="
M563.989136,517.649292 
	C563.924255,517.716003 563.691711,517.555054 563.691711,517.555054 
	C563.691711,517.555054 563.785706,517.287842 563.924683,517.255249 
	C564.063660,517.222656 564.053955,517.582520 563.989136,517.649292 
z"/>
</svg>